<svg height="480pt" viewBox="0 0 480 480" width="480pt" xmlns="http://www.w3.org/2000/svg"><path d="m72 320c-35.785156 0-72 10.992188-72 32v96c0 21.007812 36.214844 32 72 32s72-10.992188 72-32v-96c0-21.007812-36.214844-32-72-32zm0 16c36.375 0 56 11.359375 56 16s-19.625 16-56 16-56-11.359375-56-16 19.625-16 56-16zm0 128c-36.375 0-56-11.359375-56-16v-11.199219c17.574219 7.941407 36.726562 11.769531 56 11.199219 19.273438.570312 38.425781-3.257812 56-11.199219v11.199219c0 4.640625-19.625 16-56 16zm0-32c-36.375 0-56-11.359375-56-16v-11.199219c17.574219 7.941407 36.726562 11.769531 56 11.199219 19.273438.570312 38.425781-3.257812 56-11.199219v11.199219c0 4.640625-19.625 16-56 16zm0-32c-36.375 0-56-11.359375-56-16v-11.199219c17.574219 7.941407 36.726562 11.769531 56 11.199219 19.273438.570312 38.425781-3.257812 56-11.199219v11.199219c0 4.640625-19.625 16-56 16zm0 0"/><path d="m240 256c-35.785156 0-72 10.992188-72 32v160c0 21.007812 36.214844 32 72 32s72-10.992188 72-32v-160c0-21.007812-36.214844-32-72-32zm0 16c36.375 0 56 11.359375 56 16s-19.625 16-56 16-56-11.359375-56-16 19.625-16 56-16zm0 192c-36.375 0-56-11.359375-56-16v-11.199219c17.574219 7.941407 36.726562 11.769531 56 11.199219 19.273438.570312 38.425781-3.257812 56-11.199219v11.199219c0 4.640625-19.625 16-56 16zm0-32c-36.375 0-56-11.359375-56-16v-11.199219c17.574219 7.941407 36.726562 11.769531 56 11.199219 19.273438.570312 38.425781-3.257812 56-11.199219v11.199219c0 4.640625-19.625 16-56 16zm0-32c-36.375 0-56-11.359375-56-16v-11.199219c17.574219 7.941407 36.726562 11.769531 56 11.199219 19.273438.570312 38.425781-3.257812 56-11.199219v11.199219c0 4.640625-19.625 16-56 16zm0-32c-36.375 0-56-11.359375-56-16v-11.199219c17.574219 7.941407 36.726562 11.769531 56 11.199219 19.273438.570312 38.425781-3.257812 56-11.199219v11.199219c0 4.640625-19.625 16-56 16zm0-32c-36.375 0-56-11.359375-56-16v-11.199219c17.574219 7.941407 36.726562 11.769531 56 11.199219 19.273438.570312 38.425781-3.257812 56-11.199219v11.199219c0 4.640625-19.625 16-56 16zm0 0"/><path d="m408 160c-35.785156 0-72 10.992188-72 32v256c0 21.007812 36.214844 32 72 32s72-10.992188 72-32v-256c0-21.007812-36.214844-32-72-32zm0 16c36.375 0 56 11.359375 56 16s-19.625 16-56 16-56-11.359375-56-16 19.625-16 56-16zm0 288c-36.375 0-56-11.359375-56-16v-11.199219c17.574219 7.941407 36.726562 11.769531 56 11.199219 19.273438.570312 38.425781-3.257812 56-11.199219v11.199219c0 4.640625-19.625 16-56 16zm0-32c-36.375 0-56-11.359375-56-16v-11.199219c17.574219 7.941407 36.726562 11.769531 56 11.199219 19.273438.570312 38.425781-3.257812 56-11.199219v11.199219c0 4.640625-19.625 16-56 16zm0-32c-36.375 0-56-11.359375-56-16v-11.199219c17.574219 7.941407 36.726562 11.769531 56 11.199219 19.273438.570312 38.425781-3.257812 56-11.199219v11.199219c0 4.640625-19.625 16-56 16zm0-32c-36.375 0-56-11.359375-56-16v-11.199219c17.574219 7.941407 36.726562 11.769531 56 11.199219 19.273438.570312 38.425781-3.257812 56-11.199219v11.199219c0 4.640625-19.625 16-56 16zm0-32c-36.375 0-56-11.359375-56-16v-11.199219c17.574219 7.941407 36.726562 11.769531 56 11.199219 19.273438.570312 38.425781-3.257812 56-11.199219v11.199219c0 4.640625-19.625 16-56 16zm0-32c-36.375 0-56-11.359375-56-16v-11.199219c17.574219 7.941407 36.726562 11.769531 56 11.199219 19.273438.570312 38.425781-3.257812 56-11.199219v11.199219c0 4.640625-19.625 16-56 16zm0-32c-36.375 0-56-11.359375-56-16v-11.199219c17.574219 7.941407 36.726562 11.769531 56 11.199219 19.273438.570312 38.425781-3.257812 56-11.199219v11.199219c0 4.640625-19.625 16-56 16zm0-32c-36.375 0-56-11.359375-56-16v-11.199219c17.574219 7.941407 36.726562 11.769531 56 11.199219 19.273438.570312 38.425781-3.257812 56-11.199219v11.199219c0 4.640625-19.625 16-56 16zm0 0"/><path d="m392 0v16h60.6875l-152 152h-167.695312l-130.265626 113.976562 10.546876 12.046876 125.734374-110.023438h168.304688l156.6875-156.6875v60.6875h16v-88zm0 0"/></svg>