<?xml version="1.0"?>
<svg xmlns="http://www.w3.org/2000/svg" xmlns:xlink="http://www.w3.org/1999/xlink" viewBox="0 0 512 512" width="512" height="512"><linearGradient id="a" gradientUnits="userSpaceOnUse" x1="256" x2="256" y1="8" y2="512.892"><stop offset="0" stop-color="#00efd1"/><stop offset="1" stop-color="#00acea"/></linearGradient><path d="m409.391 222h-1.391v-28.25a147.871 147.871 0 0 0 -43.9-105.266 150.5 150.5 0 0 0 -105.641-43.941c-82.273 0-149.459 66.934-149.459 149.207v28.25h-6.391c-22.893 0-41.609 18.2-41.609 41.092v65.664a41.41 41.41 0 0 0 41.609 41.244h38.873a9.368 9.368 0 0 0 9.518-9.726v-128.7a9.242 9.242 0 0 0 -9.518-9.574h-12.482v-28.25c0-71.245 58.172-129.207 129.349-129.207a130.428 130.428 0 0 1 91.531 38.1 128.1 128.1 0 0 1 38.12 91.107v28.25h-12.229a9.451 9.451 0 0 0 -9.771 9.573v128.7a9.577 9.577 0 0 0 9.771 9.727h13.264l-1.9 2.711a83.739 83.739 0 0 1 -67.4 33.624 51.51 51.51 0 0 0 -102.1 9.618c0 28.4 23.339 51.5 52.025 51.5 25.117 0 46.04-17.758 50.243-41.05.119 0 .237.005.356.005a103.814 103.814 0 0 0 82.941-41.645l10.89-14.666c22.239-1.713 36.91-15.781 36.91-36.088v-65.664c0-22.079-17.846-46.345-41.609-46.345zm-278.391 20v108h-28.391a21.387 21.387 0 0 1 -21.609-21.244v-65.664c0-11.866 9.743-21.092 21.609-21.092zm138.658 205.457c-17.359 0-32.025-14.425-32.025-31.5a31.5 31.5 0 0 1 63 0q0 .408.033.818c.019.222.019.574.019 1.02 0 16.356-13.918 29.662-31.027 29.662zm161.342-113.448c0 15.091-16.562 15.991-21.609 15.991h-23.391v-108h23.391c9.686 0 21.609 11.927 21.609 26.345z" fill="url(#a)"/></svg>
