<?xml version="1.0" encoding="iso-8859-1"?>
<!-- Generator: Adobe Illustrator 19.0.0, SVG Export Plug-In . SVG Version: 6.00 Build 0)  -->
<svg version="1.1" id="Capa_1" xmlns="http://www.w3.org/2000/svg" xmlns:xlink="http://www.w3.org/1999/xlink" x="0px" y="0px"
	 viewBox="0 0 480.094 480.094" style="enable-background:new 0 0 480.094 480.094;" xml:space="preserve">
<g>
	<g>
		<circle cx="360" cy="244.007" r="16"/>
	</g>
</g>
<g>
	<g>
		<path d="M400,124.007H272c-4.418,0-8,3.582-8,8c0,4.418,3.582,8,8,8h120v24c0,4.418,3.582,8,8,8s8-3.582,8-8v-32
			C408,127.588,404.418,124.007,400,124.007z"/>
	</g>
</g>
<g>
	<g>
		<path d="M160,348.007H80.968c-8.748,0.024-17.143-3.453-23.312-9.656c-6.159-6.199-9.628-14.574-9.656-23.312v-31.032
			c0-4.418-3.582-8-8-8s-8,3.582-8,8v31.032c0.004,27.042,21.926,48.964,48.968,48.968H160c4.418,0,8-3.582,8-8
			S164.418,348.007,160,348.007z"/>
	</g>
</g>
<g>
	<g>
		<path d="M456.239,338.244c-4.914-3.958-10.386-7.168-16.239-9.525v-36.712h24c4.418,0,8-3.582,8-8v-80c0-4.418-3.582-8-8-8h-24
			v-96c0-4.418-3.582-8-8-8h-32v-24c0-4.418-3.582-8-8-8h-64v-24c0-4.418-3.582-8-8-8H40.68
			c-10.417,0.029-20.402,4.163-27.792,11.504l-1.376,1.376C2.807,49.562-1.307,61.829,0.408,73.999
			C0.183,74.647,0.045,75.322,0,76.007v257.368c0,34.588,28.036,62.628,62.624,62.632h209.928
			c4.347,35.007,36.249,59.861,71.256,55.515c11.766-1.461,22.894-6.168,32.136-13.595c27.527,22.173,67.816,17.833,89.989-9.694
			C488.106,400.706,483.766,360.417,456.239,338.244z M456,212.007v64H352.568c-17.673,0-32-14.327-32-32s14.327-32,32-32H456z
			 M22.824,52.207l1.368-1.368c4.381-4.362,10.306-6.817,16.488-6.832H312v16H56c-4.418,0-8,3.582-8,8s3.582,8,8,8h328v16H39.32
			c-12.879-0.002-23.318-10.444-23.317-23.323C16.004,62.504,18.457,56.578,22.824,52.207z M272.552,380.007H62.624
			c-25.75,0-46.624-20.874-46.624-46.624c0-0.003,0-0.005,0-0.008V100.223c6.744,5.017,14.915,7.744,23.32,7.784H424v88h-71.432
			c-26.51,0-48,21.49-48,48c0,26.51,21.49,48,48,48H424v32.552c-2.653-0.35-5.324-0.534-8-0.552
			c-14.557-0.029-28.681,4.951-40,14.104c-27.483-22.121-67.695-17.775-89.817,9.708
			C278.735,357.072,274.015,368.219,272.552,380.007z M336,436.007c-26.51,0-48-21.49-48-48c0-26.51,21.49-48,48-48
			c26.51,0,48,21.49,48,48C383.974,414.505,362.499,435.98,336,436.007z M416,436.007c-10.418,0.011-20.552-3.395-28.848-9.696
			c17.131-22.663,17.131-53.945,0-76.608c8.293-6.307,18.429-9.713,28.848-9.696c26.51,0,48,21.49,48,48
			C464,414.516,442.51,436.007,416,436.007z"/>
	</g>
</g>
<g>
</g>
<g>
</g>
<g>
</g>
<g>
</g>
<g>
</g>
<g>
</g>
<g>
</g>
<g>
</g>
<g>
</g>
<g>
</g>
<g>
</g>
<g>
</g>
<g>
</g>
<g>
</g>
<g>
</g>
</svg>
