<?xml version="1.0" encoding="iso-8859-1"?>
<!-- Generator: Adobe Illustrator 19.0.0, SVG Export Plug-In . SVG Version: 6.00 Build 0)  -->
<svg version="1.1" id="Capa_1" xmlns="http://www.w3.org/2000/svg" xmlns:xlink="http://www.w3.org/1999/xlink" x="0px" y="0px"
	 viewBox="0 0 480 480" style="enable-background:new 0 0 480 480;" xml:space="preserve">
<g>
	<g>
		<path d="M432,136.64V48c0-4.418-3.582-8-8-8H56C25.087,40.035,0.035,65.087,0,96v288c0.035,30.913,25.087,55.965,56,56h368
			c4.418,0,8-3.582,8-8v-88h-8c30.913-0.035,55.965-25.087,56-56v-96C479.947,164.195,459.517,140.633,432,136.64z M56,56h360v80
			l-360,0.512V136c-22.091,0-40-17.909-40-40S33.909,56,56,56z M416,424H56c-22.08-0.026-39.974-17.92-40-40V135.112
			c10.506,10.8,24.933,16.892,40,16.888v0.512L416,152v80H304c-30.928,0-56,25.072-56,56c0,30.928,25.072,56,56,56h112V424z
			 M464,288c-0.026,22.08-17.92,39.974-40,40H304c-22.091,0-40-17.909-40-40c0-22.091,17.909-40,40-40h128v-0.64
			c12.164-1.746,23.413-7.457,32-16.248V288z M463.24,199.96c-3.196,15.741-15.499,28.044-31.24,31.24v-78.4
			C453.65,157.196,467.636,178.31,463.24,199.96z"/>
	</g>
</g>
<g>
	<g>
		<path d="M304,264c-13.255,0-24,10.745-24,24s10.745,24,24,24s24-10.745,24-24S317.255,264,304,264z M304,296c-4.418,0-8-3.582-8-8
			s3.582-8,8-8s8,3.582,8,8S308.418,296,304,296z"/>
	</g>
</g>
<g>
	<g>
		<rect x="48" y="104" width="352" height="16"/>
	</g>
</g>
<g>
	<g>
		<rect x="368" y="168" width="24" height="16"/>
	</g>
</g>
<g>
	<g>
		<rect x="328" y="168" width="24" height="16"/>
	</g>
</g>
<g>
	<g>
		<rect x="288" y="168" width="24" height="16"/>
	</g>
</g>
<g>
	<g>
		<rect x="248" y="168" width="24" height="16"/>
	</g>
</g>
<g>
	<g>
		<rect x="208" y="168" width="24" height="16"/>
	</g>
</g>
<g>
	<g>
		<rect x="168" y="168" width="24" height="16"/>
	</g>
</g>
<g>
	<g>
		<rect x="128" y="168" width="24" height="16"/>
	</g>
</g>
<g>
	<g>
		<rect x="88" y="168" width="24" height="16"/>
	</g>
</g>
<g>
	<g>
		<rect x="48" y="168" width="24" height="16"/>
	</g>
</g>
<g>
	<g>
		<rect x="368" y="392" width="24" height="16"/>
	</g>
</g>
<g>
	<g>
		<rect x="328" y="392" width="24" height="16"/>
	</g>
</g>
<g>
	<g>
		<rect x="288" y="392" width="24" height="16"/>
	</g>
</g>
<g>
	<g>
		<rect x="248" y="392" width="24" height="16"/>
	</g>
</g>
<g>
	<g>
		<rect x="208" y="392" width="24" height="16"/>
	</g>
</g>
<g>
	<g>
		<rect x="168" y="392" width="24" height="16"/>
	</g>
</g>
<g>
	<g>
		<rect x="128" y="392" width="24" height="16"/>
	</g>
</g>
<g>
	<g>
		<rect x="88" y="392" width="24" height="16"/>
	</g>
</g>
<g>
	<g>
		<rect x="48" y="392" width="24" height="16"/>
	</g>
</g>
<g>
	<g>
		<rect x="48" y="72" width="352" height="16"/>
	</g>
</g>
<g>
	<g>
		<path d="M182.696,296.285c-1.062-3.07-2.742-5.89-4.936-8.285c8.869-9.683,8.209-24.723-1.475-33.592
			c-2.396-2.194-5.215-3.874-8.285-4.936V240h-16v8h-16v-8h-16v8h-8v16h8v48h-8v16h8v8h16v-8h16v8h16v-9.472
			C180.409,322.235,186.989,308.695,182.696,296.285z M160,312h-24v-16h24c4.418,0,8,3.582,8,8S164.418,312,160,312z M160,280h-24
			v-16h24c4.418,0,8,3.582,8,8S164.418,280,160,280z"/>
	</g>
</g>
<g>
	<g>
		<path d="M144,200c-48.601,0-88,39.399-88,88c0,48.601,39.399,88,88,88s88-39.399,88-88C231.943,239.423,192.577,200.057,144,200z
			 M144,360c-39.765,0-72-32.236-72-72c0-39.765,32.235-72,72-72s72,32.235,72,72C215.956,327.746,183.746,359.956,144,360z"/>
	</g>
</g>
<g>
</g>
<g>
</g>
<g>
</g>
<g>
</g>
<g>
</g>
<g>
</g>
<g>
</g>
<g>
</g>
<g>
</g>
<g>
</g>
<g>
</g>
<g>
</g>
<g>
</g>
<g>
</g>
<g>
</g>
</svg>
