<?xml version="1.0" encoding="utf-8"?>
<!-- Generator: Adobe Illustrator 24.0.1, SVG Export Plug-In . SVG Version: 6.00 Build 0)  -->
<svg version="1.1" id="Layer_1" xmlns="http://www.w3.org/2000/svg" xmlns:xlink="http://www.w3.org/1999/xlink" x="0px" y="0px"
	 viewBox="0 0 180 180" style="enable-background:new 0 0 180 180;" xml:space="preserve">
<style type="text/css">
	.st0{fill:#FFFFFF;}
</style>
<g>
	<g>
		<path class="st0" d="M173.09,88.02c-2.81,0-5.05,2.42-5.05,5.45v49.56c0,13.48-10.17,24.42-22.63,24.42H34.63
			c-12.49,0-22.63-10.98-22.63-24.42V92.66c0-3.03-2.24-5.45-5.05-5.45s-5.05,2.42-5.05,5.45v50.36c0,19.49,14.7,35.31,32.73,35.31
			h110.78c18.07,0,32.73-15.86,32.73-35.31V93.47C178.14,90.48,175.9,88.02,173.09,88.02L173.09,88.02z M173.09,88.02"/>
	</g>
	<path class="st0" d="M86.47,135.07c0.97,1.05,2.28,1.61,3.55,1.61c1.27,0,2.58-0.52,3.55-1.61l32.09-34.63
		c1.98-2.14,1.98-5.57,0-7.71c-1.98-2.14-5.16-2.14-7.14,0l-23.45,25.34V7.55c0-3.03-2.24-5.45-5.05-5.45s-5.05,2.42-5.05,5.45
		v110.54L61.49,92.74c-1.98-2.14-5.16-2.14-7.14,0c-1.98,2.14-1.98,5.57,0,7.71L86.47,135.07z M86.47,135.07"/>
</g>
</svg>
