<?xml version="1.0" encoding="utf-8"?>
<!-- Generator: Adobe Illustrator 24.0.1, SVG Export Plug-In . SVG Version: 6.00 Build 0)  -->
<svg version="1.1" id="Layer_1" xmlns="http://www.w3.org/2000/svg" xmlns:xlink="http://www.w3.org/1999/xlink" x="0px" y="0px"
	 viewBox="0 0 180 180" style="enable-background:new 0 0 180 180;" xml:space="preserve">
<style type="text/css">
	.st0{fill:#FFFFFF;}
</style>
<g>
	<path class="st0" d="M174.21,178.64H1.6V6.45c0-2.57,1.9-4.66,4.24-4.66s4.24,2.08,4.24,4.66v162.88h164.13
		c2.34,0,4.24,2.08,4.24,4.66C178.45,176.56,176.55,178.64,174.21,178.64z"/>
	<path class="st0" d="M41.02,141.73c-1.12,0-2.24-0.48-3.07-1.44c-1.62-1.86-1.55-4.81,0.14-6.58l62.07-64.95l14.48,15.89
		l50.15-55.03c1.66-1.82,4.34-1.82,6,0c1.66,1.82,1.66,4.77,0,6.58l-56.14,61.62l-14.63-16.05l-56.07,58.68
		C43.12,141.31,42.07,141.73,41.02,141.73z"/>
	<path class="st0" d="M167.79,92.2c-2.34,0-4.24-2.08-4.24-4.66V37.57h-46.42c-2.34,0-4.24-2.08-4.24-4.66s1.9-4.66,4.24-4.66h54.91
		v59.29C172.03,90.12,170.14,92.2,167.79,92.2z"/>
</g>
</svg>
