<?xml version="1.0" encoding="utf-8"?>
<!-- Generator: Adobe Illustrator 24.0.1, SVG Export Plug-In . SVG Version: 6.00 Build 0)  -->
<svg version="1.1" id="Layer_1" xmlns="http://www.w3.org/2000/svg" xmlns:xlink="http://www.w3.org/1999/xlink" x="0px" y="0px"
	 viewBox="0 0 180 180" style="enable-background:new 0 0 180 180;" xml:space="preserve">
<style type="text/css">
	.st0{fill:#FFFFFF;}
</style>
<g>
	<g>
		<path class="st0" d="M173.14,87.93c-2.81,0-5.05,2.41-5.05,5.42v49.34c0,13.42-10.18,24.31-22.64,24.31H34.63
			c-12.5,0-22.64-10.93-22.64-24.31V92.55c0-3.01-2.25-5.42-5.05-5.42s-5.05,2.41-5.05,5.42v50.15c0,19.41,14.71,35.16,32.74,35.16
			h110.83c18.07,0,32.74-15.79,32.74-35.16V93.35C178.2,90.38,175.95,87.93,173.14,87.93L173.14,87.93z M173.14,87.93"/>
	</g>
	<path class="st0" d="M54.34,38.46c-1.98,2.13-1.98,5.54,0,7.68c1.98,2.13,5.16,2.13,7.15,0l23.5-25.23v110.06
		c0,3.01,2.25,5.42,5.05,5.42c2.81,0,5.05-2.41,5.05-5.42V20.9l23.46,25.23c1.98,2.13,5.16,2.13,7.15,0c1.98-2.13,1.98-5.54,0-7.68
		L93.59,3.99c-0.97-1.08-2.28-1.61-3.55-1.61c-1.27,0-2.58,0.56-3.56,1.61L54.34,38.46z M86.49,3.99"/>
</g>
</svg>
